<?xml version="1.0" encoding="UTF-8" standalone="no"?>
<svg width="176px" height="116px" viewBox="0 0 176 116" version="1.1" xmlns="http://www.w3.org/2000/svg" xmlns:xlink="http://www.w3.org/1999/xlink">
    <!-- Generator: Sketch 40 (33762) - http://www.bohemiancoding.com/sketch -->
    <title>golden-ratio</title>
    <desc>Created with Sketch.</desc>
    <defs></defs>
    <g id="Website" stroke="none" stroke-width="1" fill="none" fill-rule="evenodd">
        <g id="Desktop-HD-whithout-images-black-Copy-7" transform="translate(-154.000000, -698.000000)" fill="#5E5E5E">
            <g id="golden-ratio" transform="translate(154.000000, 698.000000)">
                <path d="M2,2 L2,114 L174,114 L174,2 L2,2 Z M2,0.9 L174,0.9 L175.1,0.9 L175.1,2 L175.1,114 L175.1,115.1 L174,115.1 L2,115.1 L0.9,115.1 L0.9,114 L0.9,2 L0.9,0.9 L2,0.9 Z" id="Rectangle-10"></path>
                <path d="M2,2 L2,114 L52,114 L52,2 L2,2 Z M2,1 L52,1 L53,1 L53,2 L53,114 L53,115 L52,115 L2,115 L1,115 L1,114 L1,2 L1,1 L2,1 Z" id="Rectangle-10"></path>
                <path d="M2,69 L2,114 L52,114 L52,69 L2,69 Z M2,68 L52,68 L53,68 L53,69 L53,114 L53,115 L52,115 L2,115 L1,115 L1,114 L1,69 L1,68 L2,68 Z" id="Rectangle-10"></path>
                <path d="M31,69 L31,114 L52,114 L52,69 L31,69 Z M31,68 L52,68 L53,68 L53,69 L53,114 L53,115 L52,115 L31,115 L30,115 L30,114 L30,69 L30,68 L31,68 Z" id="Rectangle-10"></path>
                <path d="M31,69 L31,85 L52,85 L52,69 L31,69 Z M31,68 L52,68 L53,68 L53,69 L53,85 L53,86 L52,86 L31,86 L30,86 L30,85 L30,69 L30,68 L31,68 Z" id="Rectangle-10"></path>
            </g>
        </g>
    </g>
</svg>