<?xml version="1.0" encoding="UTF-8" standalone="no"?>
<svg width="143px" height="122px" viewBox="0 0 143 122" version="1.1" xmlns="http://www.w3.org/2000/svg" xmlns:xlink="http://www.w3.org/1999/xlink">
    <!-- Generator: Sketch 40 (33762) - http://www.bohemiancoding.com/sketch -->
    <title>rombo</title>
    <desc>Created with Sketch.</desc>
    <defs></defs>
    <g id="Website" stroke="none" stroke-width="1" fill="none" fill-rule="evenodd">
        <g id="Desktop-HD-whithout-images-black-Copy-7" transform="translate(-835.000000, -697.000000)" fill="#5E5E5E">
            <g id="rombo" transform="translate(835.000000, 697.000000)">
                <path d="M1.37049306,19.1919409 L1.12902245,20.0107675 L71.2894012,1.27159876 L141.872133,20.0110748 L141.622779,19.1995173 L115.243694,49.5201293 L115.620915,49.3483131 L28.4781226,49.3483131 L28.8486156,49.5125529 L1.37049306,19.1919409 Z M28.2564722,50.3483131 L115.620915,50.3483131 L115.998136,50.1764969 L142.377221,19.8558849 L142.904536,19.2497792 L142.127867,19.0443274 L71.2882453,0.305158594 L0.87097755,19.0446346 L0.0791148873,19.2561336 L0.629506937,19.8634612 L28.1076295,50.1840733 L28.2564722,50.3483131 Z" id="Polygon"></path>
                <path d="M1.37049306,54.1919409 L1.12902245,55.0107675 L71.2894012,36.2715988 L141.872133,55.0110748 L141.622779,54.1995173 L115.243694,84.5201293 L115.620915,84.3483131 L28.4781226,84.3483131 L28.8486156,84.5125529 L1.37049306,54.1919409 Z M28.2564722,85.3483131 L115.620915,85.3483131 L115.998136,85.1764969 L142.377221,54.8558849 L142.904536,54.2497792 L142.127867,54.0443274 L71.2882453,35.3051586 L0.87097755,54.0446346 L0.0791148873,54.2561336 L0.629506937,54.8634612 L28.1076295,85.1840733 L28.2564722,85.3483131 Z" id="Polygon"></path>
                <path d="M1.37049306,90.1919409 L1.12902245,91.0107675 L71.2894012,72.2715988 L141.872133,91.0110748 L141.622779,90.1995173 L115.243694,120.520129 L115.620915,120.348313 L28.4781226,120.348313 L28.8486156,120.512553 L1.37049306,90.1919409 Z M28.2564722,121.348313 L115.620915,121.348313 L115.998136,121.176497 L142.377221,90.8558849 L142.904536,90.2497792 L142.127867,90.0443274 L71.2882453,71.3051586 L0.87097755,90.0446346 L0.0791148873,90.2561336 L0.629506937,90.8634612 L28.1076295,121.184073 L28.2564722,121.348313 Z" id="Polygon"></path>
                <polygon id="Line" points="28 120.5 28 121 29 121 29 120.5 29 50.5 29 50 28 50 28 50.5"></polygon>
                <polygon id="Line" points="115 120.5 115 121 116 121 116 120.5 116 50.5 116 50 115 50 115 50.5"></polygon>
                <polygon id="Line" points="142 90.5 142 91 143 91 143 90.5 143 19.5 143 19 142 19 142 19.5"></polygon>
                <polygon id="Line" points="0 89.5 0 90 1 90 1 89.5 1 19.5 1 19 0 19 0 19.5"></polygon>
            </g>
        </g>
    </g>
</svg>