<svg width="4367" height="981" viewBox="0 0 4367 981" fill="none" xmlns="http://www.w3.org/2000/svg">
<path d="M0 746.81L439.444 980.473V814.558L0 580.895V746.81Z" fill="black"/>
<path d="M732.445 77.8879V160.845L439.482 316.621L146.519 160.845V77.8879L0.0375977 0V248.873L439.482 482.536L732.445 326.76V409.833L439.482 565.609L0.0375977 331.945V497.86L439.482 731.524L878.926 497.86V331.945V248.873V0L732.445 77.8879Z" fill="black"/>
<path d="M1510.15 199.713H1259.73V751.298H1358.08V562.885H1510.15C1625.9 562.885 1690.21 495.53 1690.21 381.299C1690.21 267.068 1628.2 199.713 1510.15 199.713ZM1585.07 406.258C1585.07 450.916 1554.8 479.658 1499.58 479.658H1358.08V288.984H1504.1C1553.28 288.984 1585.07 313.943 1585.07 358.601V406.258Z" fill="black"/>
<path d="M1952.15 350.293H1814.44C1780.39 350.293 1756.17 360.12 1746.35 377.513C1736.52 394.907 1733.48 409.3 1733.48 430.476V751.296H1827.31V426.693H1952.15V350.293Z" fill="black"/>
<path d="M2148.87 342.73C2089.08 342.73 2040.69 361.646 2005.12 398.737C1969.55 435.828 1952.15 486.486 1952.15 550.798C1952.15 615.11 1969.55 665.811 2005.12 702.859C2040.69 739.95 2089.08 758.865 2148.87 758.865C2208.66 758.865 2258.58 739.95 2293.37 702.12C2328.94 664.289 2346.33 613.588 2346.33 550.798C2346.33 488.008 2328.15 435.045 2291.85 397.954C2255.54 360.863 2207.88 342.73 2148.83 342.73H2148.87ZM2250.28 583.323C2250.28 646.113 2209.4 681.683 2148.87 681.683C2088.34 681.683 2047.47 646.113 2047.47 583.323V520.534C2047.47 459.266 2087.56 419.913 2148.87 419.913C2210.18 419.913 2250.28 459.266 2250.28 520.534V583.323Z" fill="black"/>
<path d="M2511.3 221.668H2418.25V350.292H2346.37V426.692H2418.25V676.373C2418.25 726.291 2443.99 751.294 2494.65 751.294H2593.01V676.373H2511.3V426.692H2593.01V350.292H2511.3V221.668Z" fill="black"/>
<path d="M2808.77 685.466C2750.51 685.466 2711.15 649.157 2711.15 593.933V571.974H2989.58C2991.84 559.886 2992.62 544.754 2992.62 526.578C2992.62 469.832 2975.97 424.436 2941.92 391.91C2908.61 359.385 2864 342.73 2807.99 342.73C2689.98 342.73 2615.06 419.913 2615.06 550.059C2615.06 614.371 2632.45 665.072 2666.5 702.902C2700.54 739.994 2748.2 758.909 2808.73 758.909C2857.17 758.909 2898 746.821 2932.05 723.34C2966.1 699.119 2986.53 667.333 2994.84 628.024H2901.78C2890.43 662.072 2856.39 685.509 2808.73 685.509L2808.77 685.466ZM2711.2 500.096C2711.2 449.395 2749.77 415.348 2806.51 415.348C2863.26 415.348 2898.83 447.873 2898.83 497.053V507.663H2711.2V500.096Z" fill="black"/>
<path d="M3224.04 681.681C3165.77 681.681 3126.42 646.112 3126.42 585.583V521.271C3126.42 460.743 3164.25 419.868 3224.04 419.868C3271.7 419.868 3306.53 444.089 3315.57 489.485H3408.62C3396.54 400.953 3326.92 342.686 3227.04 342.686C3167.25 342.686 3119.59 360.862 3084.02 397.909C3048.45 435.001 3031.06 485.659 3031.06 551.492C3031.06 679.377 3103.68 758.821 3224.73 758.821C3327.62 758.821 3398.01 702.814 3409.36 608.238H3316.31C3308 653.634 3273.17 681.638 3223.99 681.638L3224.04 681.681Z" fill="black"/>
<path d="M3593.51 221.668H3500.46V350.292H3428.58V426.692H3500.46V676.373C3500.46 726.291 3526.2 751.294 3576.86 751.294H3675.22V676.373H3593.51V426.692H3675.22V350.292H3593.51V221.668Z" fill="black"/>
<path d="M3896.94 342.73C3837.15 342.73 3788.76 361.646 3753.19 398.737C3717.62 435.828 3700.23 486.486 3700.23 550.798C3700.23 615.11 3717.62 665.811 3753.19 702.859C3788.76 739.95 3837.15 758.865 3896.94 758.865C3956.73 758.865 4006.65 739.95 4041.44 702.12C4077.01 664.289 4094.4 613.588 4094.4 550.798C4094.4 488.008 4076.23 435.045 4039.92 397.954C4003.61 360.863 3955.95 342.73 3896.9 342.73H3896.94ZM3998.3 583.323C3998.3 646.113 3957.43 681.683 3896.9 681.683C3836.37 681.683 3795.5 646.113 3795.5 583.323V520.534C3795.5 459.266 3835.59 419.913 3896.9 419.913C3958.21 419.913 3998.3 459.266 3998.3 520.534V583.323Z" fill="black"/>
<path d="M4228.94 350.293C4194.89 350.293 4170.67 360.12 4160.84 377.513C4151.02 394.907 4147.97 409.3 4147.97 430.476V751.296H4241.81V426.693H4366.65V350.293H4228.94Z" fill="black"/>
</svg>
