<svg width="16" height="16" viewBox="0 0 16 16" fill="none" xmlns="http://www.w3.org/2000/svg">
<path d="M11.8144 1.85649C11.7841 1.91715 11.7114 1.94306 11.6495 1.91525C10.7288 1.49631 9.6097 1.35477 8.87422 1.35477C6.22977 1.35477 3.58469 2.64445 3.58469 4.76443C3.58469 5.9012 4.43711 6.86293 5.68319 6.86293C7.06007 6.86293 8.08752 5.8576 8.91782 4.93946C9.6609 4.10917 10.5354 3.19103 11.7809 3.19103C13.1363 3.19103 14.1195 4.19636 14.1195 5.55176C14.1195 7.69386 11.5401 10.0982 7.97757 10.0982C4.41499 10.0982 1.83626 8.19621 1.83626 5.55176C1.83626 3.08171 4.76506 0.852417 7.9782 0.852417C9.6179 0.852417 10.8527 1.19617 11.7613 1.68904C11.8213 1.7219 11.8447 1.79519 11.8144 1.85649ZM7.9782 0C3.58469 0 0 3.5847 0 7.97821C0 12.3717 3.58469 16 7.9782 16C12.3717 16 16 12.4153 16 7.97821C16 3.5411 12.4147 0 7.9782 0Z" fill="#3EBE6A"/>
</svg>
