<svg width="18" height="18" viewBox="0 0 18 18" fill="none" xmlns="http://www.w3.org/2000/svg">
<path d="M8.64 6.78C8.64 7.8 7.8 8.64 6.78 8.64C5.76 8.64 4.92 7.8 4.92 6.78C4.92 5.76 5.76 4.92 6.78 4.92C7.8 4.92 8.64 5.76 8.64 6.78ZM6.78 9.36C5.76 9.36 4.92 10.2 4.92 11.22C4.92 12.24 5.76 13.08 6.78 13.08C7.8 13.08 8.64 12.24 8.64 11.22C8.64 10.2 7.8 9.36 6.78 9.36ZM18 9C18 13.98 13.98 18 9 18C4.02 18 0 13.98 0 9C0 4.02 4.02 0 9 0C13.98 0 18 4.02 18 9ZM15.6 9C15.6 5.34 12.66 2.4 9 2.4C5.34 2.4 2.4 5.34 2.4 9C2.4 12.66 5.34 15.6 9 15.6C12.66 15.6 15.6 12.66 15.6 9ZM11.22 9.36C10.2 9.36 9.36 10.2 9.36 11.22C9.36 12.24 10.2 13.08 11.22 13.08C12.24 13.08 13.08 12.24 13.08 11.22C13.08 10.2 12.24 9.36 11.22 9.36ZM11.22 4.92C10.2 4.92 9.36 5.76 9.36 6.78C9.36 7.8 10.2 8.64 11.22 8.64C12.24 8.64 13.08 7.8 13.08 6.78C13.08 5.76 12.24 4.92 11.22 4.92Z" fill="#F22F46"/>
</svg>
