<?xml version="1.0" encoding="UTF-8" standalone="no"?>
<svg width="31px" height="18px" viewBox="0 0 31 18" version="1.1" xmlns="http://www.w3.org/2000/svg" xmlns:xlink="http://www.w3.org/1999/xlink">
    <!-- Generator: Sketch 39.1 (31720) - http://www.bohemiancoding.com/sketch -->
    <title>rafael logo</title>
    <desc>Created with Sketch.</desc>
    <defs>
        <rect id="path-1" x="15" y="9" width="11" height="1"></rect>
        <mask id="mask-2" maskContentUnits="userSpaceOnUse" maskUnits="objectBoundingBox" x="-0.2" y="-0.2" width="11.4" height="1.4">
            <rect x="14.8" y="8.8" width="11.4" height="1.4" fill="white"></rect>
            <use xlink:href="#path-1" fill="black"></use>
        </mask>
        <rect id="path-3" x="0" y="0" width="31" height="18"></rect>
        <mask id="mask-4" maskContentUnits="userSpaceOnUse" maskUnits="objectBoundingBox" x="0" y="0" width="31" height="18" fill="white">
            <use xlink:href="#path-3"></use>
        </mask>
    </defs>
    <g id="Page-1" stroke="none" stroke-width="1" fill="none" fill-rule="evenodd">
        <g id="rafael-logo">
            <path d="M8.55534532,10.1456044 L5.64333018,10.1456044 L5.64333018,15 L4,15 L4,3 L8.10406812,3 C9.50048002,3 10.5747361,3.30768923 11.3268685,3.92307692 C12.0790009,4.53846462 12.4550615,5.43406005 12.4550615,6.60989011 C12.4550615,7.35714659 12.2464543,8.00823898 11.8292337,8.56318681 C11.4120131,9.11813464 10.8316026,9.53296566 10.0879849,9.80769231 L13,14.9010989 L13,15 L11.2459792,15 L8.55534532,10.1456044 Z M5.64333018,8.85164835 L8.1551561,8.85164835 C8.59792085,8.85164835 8.9853342,8.79258301 9.31740776,8.67445055 C9.64948132,8.55631809 9.92620514,8.39697902 10.1475875,8.19642857 C10.3689699,7.99587812 10.5350042,7.75961674 10.6456954,7.48763736 C10.7563866,7.21565798 10.8117313,6.92307849 10.8117313,6.60989011 C10.8117313,6.26373453 10.7592247,5.94917724 10.65421,5.66620879 C10.5491953,5.38324034 10.3859992,5.14011091 10.1646168,4.93681319 C9.94323447,4.73351547 9.66225336,4.57692363 9.32166509,4.46703297 C8.98107682,4.35714231 8.57521522,4.3021978 8.10406812,4.3021978 L5.64333018,4.3021978 L5.64333018,8.85164835 Z" id="R" fill="#000000"></path>
            <g id="Rectangle-2">
                <use fill="#000000" fill-rule="evenodd" xlink:href="#path-1"></use>
                <use stroke="#000000" mask="url(#mask-2)" stroke-width="0.4" xlink:href="#path-1"></use>
            </g>
            <use id="Rectangle-3" stroke="#000000" mask="url(#mask-4)" stroke-width="2.4" xlink:href="#path-3"></use>
        </g>
    </g>
</svg>