<?xml version="1.0" standalone="no"?>
<!DOCTYPE svg PUBLIC "-//W3C//DTD SVG 20010904//EN"
 "http://www.w3.org/TR/2001/REC-SVG-20010904/DTD/svg10.dtd">
<svg version="1.0" xmlns="http://www.w3.org/2000/svg"
 width="260.000000pt" height="260.000000pt" viewBox="0 0 260.000000 260.000000"
 preserveAspectRatio="xMidYMid meet">
<metadata>
Created by potrace 1.11, written by Peter Selinger 2001-2013
</metadata>
<g transform="translate(0.000000,260.000000) scale(0.100000,-0.100000)"
fill="#000000" stroke="none">
<path d="M0 1300 l0 -1300 1300 0 1300 0 0 1300 0 1300 -1300 0 -1300 0 0
-1300z m1541 862 c249 -67 379 -233 379 -483 0 -182 -89 -334 -247 -420 -40
-23 -73 -43 -73 -46 0 -2 83 -154 184 -336 101 -183 191 -347 200 -364 l17
-33 -124 0 -123 0 -184 345 -185 345 -202 0 -203 0 0 -345 0 -345 -110 0 -110
0 0 856 0 856 353 -5 c314 -4 360 -7 428 -25z"/>
<path d="M982 1678 l3 -323 155 -3 c319 -6 447 37 518 172 24 46 27 61 27 156
0 95 -3 110 -27 156 -43 81 -113 131 -216 153 -29 6 -144 11 -258 11 l-204 0
2 -322z"/>
</g>
</svg>
